<?xml version="1.0" ?>
<!DOCTYPE svg  PUBLIC '-//W3C//DTD SVG 1.1//EN'  'http://www.w3.org/Graphics/SVG/1.1/DTD/svg11.dtd'>
<!-- Uploaded to: SVG Repo, www.svgrepo.com, Generator: SVG Repo Mixer Tools -->
<svg width="800px" height="800px" viewBox="0 0 500 500" id="Layer_1" version="1.1" xml:space="preserve" xmlns="http://www.w3.org/2000/svg" xmlns:xlink="http://www.w3.org/1999/xlink">
<style type="text/css">
	.st0{fill:#62626A;}
	.st1{fill:#FF9E9D;}
	.st2{fill:#FFFFFF;stroke:#62626A;stroke-width:9;stroke-miterlimit:10;}
	.st3{fill:none;stroke:#62626A;stroke-width:9;stroke-miterlimit:10;}
	.st4{fill:#FF9E9D;stroke:#62626A;stroke-width:9;stroke-miterlimit:10;}
</style>
<title/>
<g id="Layer_2_1_">
<g id="Layer_1-2">
<path class="st0" d="M500,262.8c0,91.8-50.4,176.3-131.1,220H131.1C9.7,417.1-35.6,265.4,30.1,144S247.4-22.8,368.9,42.9    C449.6,86.5,500,170.9,500,262.8z"/>
<path class="st1" d="M276.5,262.8h-52.9c-19.6,0-36.6-13.6-41-32.7L162,140.3c-5.6-24.6,12.6-49.2,46.2-60.8    c13.5-4.5,27.6-6.8,41.8-6.7l0,0c14.2-0.1,28.3,2.2,41.8,6.7c33.6,11.6,51.9,36.2,46.2,60.8l-20.6,89.8    C313.1,249.2,296.1,262.7,276.5,262.8z"/>
<path class="st2" d="M400,346v136.8H100V346c0-25.1,17.7-46.8,42.4-51.7l20.1-4l33.3-6.7c35.8-7.1,72.6-7.1,108.4,0l36.2,7.2    l17.2,3.5C382.3,299.2,400,320.8,400,346z"/>
<path class="st2" d="M330,362.8v31.4c13.3,17.3,13.3,41.3,0,58.6v30"/>
<circle class="st2" cx="315" cy="187.8" r="15"/>
<circle class="st2" cx="185" cy="187.8" r="15"/>
<path class="st2" d="M304.2,283.6c-8-1.6-16.1-2.8-24.2-3.7v-37.1h-60v37.1c-8.1,0.9-16.2,2.1-24.2,3.7l-25.8,5.2v4l30.1,33.9    c24.5,27.6,66.7,30,94.2,5.5c2-1.7,3.8-3.6,5.5-5.5l30.1-33.9v-4L304.2,283.6z"/>
<path class="st2" d="M190,142.8v60c0,33.1,26.9,60,60,60l0,0c33.1,0,60-26.9,60-60v-60"/>
<path class="st2" d="M320,142.8c0,0-50,0-70-20c-20,20-70,20-70,20"/>
<circle class="st0" cx="275" cy="177.8" r="5"/>
<circle class="st0" cx="225" cy="177.8" r="5"/>
<path class="st2" d="M270,212.8L270,212.8c0,11-9,20-20,20c-11,0-20-9-20-20"/>
<path class="st2" d="M170,362.8v31.4c-13.3,17.3-13.3,41.3,0,58.6v30"/>
<polyline class="st2" points="320,192.8 280,232.8 270,232.8   "/>
<path class="st0" d="M320,172.8L320,172.8c5.5,0,10,4.5,10,10v10c0,5.5-4.5,10-10,10l0,0c-5.5,0-10-4.5-10-10v-10    C310,177.2,314.5,172.8,320,172.8z"/>
<path class="st0" d="M180,172.8L180,172.8c5.5,0,10,4.5,10,10v10c0,5.5-4.5,10-10,10l0,0c-5.5,0-10-4.5-10-10v-10    C170,177.2,174.5,172.8,180,172.8z"/>
<path class="st3" d="M320,182.8v-30c0-33.1-31.3-60-70-60s-70,26.9-70,60v30"/>
<rect class="st4" height="20" width="40" x="270" y="362.8"/>
</g>
</g>
</svg>